<svg xmlns="http://www.w3.org/2000/svg" viewBox="0 0 671.3465 198.0129">
  <defs>
    <style>
      .a {
        fill: #1c1f75;
      }

      .b {
        fill: #fff;
      }

      .c {
        fill: #2e3192;
      }
    </style>
  </defs>
  <g>
    <g>
      <path class="a" d="M118.3658,19.8223a12.987,12.987,0,0,1,13.018,12.9968l-.0654,122.4458c0,12.1575,3.6267,15.7842,8.1,15.7842l-10.8573,7.6135a12.81,12.81,0,0,1-7.4054,2.374A12.9869,12.9869,0,0,1,108.1382,168.04l.0653-122.4458c0-12.1575-3.6266-15.7842-8.1-15.7842L110.96,22.1963a12.81,12.81,0,0,1,7.4054-2.374m.0005-16.9764h-.0005a29.7484,29.7484,0,0,0-17.1522,5.451L90.3564,15.91a16.9764,16.9764,0,0,0,.8488,28.3572q.021.6.0221,1.3264l-.0654,122.4368a29.9261,29.9261,0,0,0,47.1464,24.5312l10.8573-7.6135a16.9765,16.9765,0,0,0-.8489-28.3572c-.0139-.4-.022-.8413-.022-1.3264L148.36,32.8281A30.0192,30.0192,0,0,0,118.3663,2.8459Z"/>
      <path class="a" d="M35.24,19.8223a12.9872,12.9872,0,0,1,13.018,12.9968L55.2653,27.9a21.4227,21.4227,0,0,1,24.59-.019v0A24.6655,24.6655,0,0,1,90.38,48.0911v9.0464A30.6528,30.6528,0,0,1,70.9657,85.6558h0l4.8584,2.1335a32.9882,32.9882,0,0,1,19.724,30.2046l0,7.5564a43.5275,43.5275,0,0,1-18.8006,35.8213l-28.4891,19.665-23.18-16.2309V45.594c0-12.1575-3.6267-15.7842-8.1-15.7842l10.8573-7.6135a12.8124,12.8124,0,0,1,7.4054-2.374m0-16.9764A29.7478,29.7478,0,0,0,18.088,8.2969L7.2307,15.91A16.9766,16.9766,0,0,0,8.08,44.2676q.021.6.0221,1.3264V164.8057a16.9766,16.9766,0,0,0,7.239,13.9062l23.18,16.231a16.9768,16.9768,0,0,0,19.381.0649l28.489-19.665a60.5038,60.5038,0,0,0,26.1332-49.7923l0-7.5564A49.9584,49.9584,0,0,0,99.1087,83.926a47.4438,47.4438,0,0,0,8.2476-26.7885V48.0911A41.6742,41.6742,0,0,0,89.5874,13.9717,38.4469,38.4469,0,0,0,54.0482,9.4868,29.8638,29.8638,0,0,0,35.24,2.8459Z"/>
      <path class="a" d="M633.316,19.8223a12.987,12.987,0,0,1,13.0179,12.9968l-.0654,122.4458c0,12.1575,3.6267,15.7842,8.1,15.7842l-10.8573,7.6135a12.81,12.81,0,0,1-7.4055,2.374A12.987,12.987,0,0,1,623.0883,168.04l.0654-122.4458c0-12.1575-3.6267-15.7842-8.1-15.7842l10.8573-7.6135a12.81,12.81,0,0,1,7.4054-2.374m0-16.9764h0a29.7481,29.7481,0,0,0-17.1519,5.451L605.3064,15.91a16.9764,16.9764,0,0,0,.849,28.3572q.021.6.022,1.3264l-.0654,122.4368a29.926,29.926,0,0,0,47.1463,24.5312l10.8575-7.6135a16.9764,16.9764,0,0,0-.849-28.3572c-.0139-.4-.022-.8413-.022-1.3264L663.31,32.8281A30.0193,30.0193,0,0,0,633.3163,2.8459Z"/>
      <path class="a" d="M441.209,19.8223a12.9884,12.9884,0,0,1,13.018,12.9968V47.1558h7.7514v.0654h5.4969c12.1574,0,15.7843-3.6267,15.7843-8.1L490.873,49.978A12.9743,12.9743,0,0,1,480.25,70.4014l-26.0232-.0342v71.6006h-.0653v13.2971c0,12.1575,3.6266,15.7842,8.1,15.7842l-10.8573,7.6135a12.8093,12.8093,0,0,1-7.4055,2.374A12.9877,12.9877,0,0,1,430.9814,168.04v-26.512h.0654V70.3367l-.5966-.0008c-12.1574,0-15.784,3.6267-15.784,8.1006l-7.6135-10.8574a12.9742,12.9742,0,0,1,10.6228-20.4233h13.3713V45.594c0-12.1575-3.6267-15.7842-8.1005-15.7842l10.8573-7.6135a12.8068,12.8068,0,0,1,7.4054-2.374m-.0014-16.9764a29.7439,29.7439,0,0,0-17.1508,5.451L413.2,15.91a16.9778,16.9778,0,0,0-7.0223,16.5486,29.9737,29.9737,0,0,0-13.024,44.8669l7.6136,10.8574a16.9785,16.9785,0,0,0,13.3038,7.22v44.623q-.0649.7419-.0656,1.5012V168.04a29.9262,29.9262,0,0,0,47.1465,24.5222l10.8573-7.6135a16.9764,16.9764,0,0,0-.8488-28.3572q-.021-.6-.022-1.3264V143.4673q.0648-.7413.0653-1.4995V87.3657l9.0245.012a29.9506,29.9506,0,0,0,24.5446-47.1465L497.1591,29.374a16.977,16.977,0,0,0-26.4042-1.7351,30.0425,30.0425,0,0,0-29.544-24.793h-.0033Z"/>
      <path class="a" d="M223.82,83.155v58.8118h-.0654v13.2971c0,12.1575,3.6267,15.7842,8.1,15.7842l-10.8573,7.6135a12.8091,12.8091,0,0,1-7.4055,2.374,12.9879,12.9879,0,0,1-13.0179-12.9968v-.0263l-12.6192,8.6469a21.5508,21.5508,0,0,1-12.2633,3.857,21.84,21.84,0,0,1-21.8848-21.8782l.02-49.5027c0-12.1575-3.6267-15.7842-8.1-15.7842l10.8573-7.6135a12.8066,12.8066,0,0,1,7.4054-2.374,12.9883,12.9883,0,0,1,13.0179,12.9968v67.4263a4.5143,4.5143,0,0,0,4.5233,4.5173,4.4563,4.4563,0,0,0,2.52-.7871l16.5239-11.2922v-14.698l-.2418-36.4246a9.0173,9.0173,0,0,1,3.6621-7.3147L223.82,83.155m.0019-16.9763a16.9676,16.9676,0,0,0-10.0832,3.3176L193.9134,84.1287q-.99.7313-1.9,1.5471a30.0469,30.0469,0,0,0-28.0231-19.2883h-.0032a29.7408,29.7408,0,0,0-17.1507,5.4509l-10.8573,7.6135a16.9766,16.9766,0,0,0,.8489,28.3572c.0139.4.0221.8413.0221,1.3264l-.0195,49.4961a38.411,38.411,0,0,0,11.2573,27.3843,39.302,39.302,0,0,0,27.6037,11.4768,38.427,38.427,0,0,0,19.845-5.5357,29.8325,29.8325,0,0,0,35.2077.604l10.8573-7.6135a16.9766,16.9766,0,0,0-.8489-28.3572c-.0139-.4-.0221-.8413-.0221-1.3264V143.4668q.065-.7412.0654-1.5V83.155A16.9763,16.9763,0,0,0,223.822,66.1787Z"/>
      <path class="a" d="M284.85,81.415a21.84,21.84,0,0,1,21.8847,21.8782l-.0073,11.5435a3.77,3.77,0,0,1-1.5759,3.0634l-18.9168,13.5411.0117.0537-19.95,13.771v11.3908a7.5522,7.5522,0,0,0,7.5706,7.5584,7.45,7.45,0,0,0,4.3148-1.3867L305.2941,143.76v12.163l-20.6405,14.4576-7.4087,5.0764a21.5519,21.5519,0,0,1-12.2635,3.8572,21.84,21.84,0,0,1-21.8846-21.8782l.0195-29.3679a43.0306,43.0306,0,0,1,19.3163-35.9065l2.7455-1.8133,7.4087-5.0766A21.5505,21.5505,0,0,1,284.85,81.415m-18.5536,51.222L283.6582,120.44l-.123-10.2365A10.923,10.923,0,0,0,272.5844,99.272a10.7724,10.7724,0,0,0-6.2878,2.04h0v31.325M284.85,64.4387a38.5442,38.5442,0,0,0-21.859,6.8291L255.7,76.2639l-2.6232,1.7322A59.8551,59.8551,0,0,0,226.14,128.0684l-.0195,29.3566a38.4152,38.4152,0,0,0,11.2574,27.389,39.3017,39.3017,0,0,0,27.6035,11.4768,38.5446,38.5446,0,0,0,21.8592-6.8294l7.4086-5.0764q.0722-.0493.1438-.1l20.6405-14.4575a16.9761,16.9761,0,0,0,7.2369-13.9046V143.76a16.9775,16.9775,0,0,0-6.0379-12.9832,20.7981,20.7981,0,0,0,7.4713-15.929l.0073-11.5441a38.4144,38.4144,0,0,0-11.2573-27.3885A39.3023,39.3023,0,0,0,284.85,64.4387Z"/>
      <path class="a" d="M515.24,81.415a21.84,21.84,0,0,1,21.8847,21.8782l-.0074,11.5435a3.77,3.77,0,0,1-1.5759,3.0634L516.625,131.4412l.0116.0537-19.95,13.771v11.3908a7.5524,7.5524,0,0,0,7.5705,7.5584,7.45,7.45,0,0,0,4.3149-1.3867l19.3632-11.3457a5.1363,5.1363,0,0,1,7.7489,4.4406l-20.6405,14.4576-7.4086,5.0764a21.5517,21.5517,0,0,1-12.2636,3.8572,21.84,21.84,0,0,1-21.8845-21.8782l.0194-29.3679a43.0307,43.0307,0,0,1,19.3164-35.9065l2.7454-1.8133,7.4088-5.0766A21.5508,21.5508,0,0,1,515.24,81.415m-18.5536,51.222L514.0484,120.44l-.1231-10.2365A10.923,10.923,0,0,0,502.9745,99.272a10.7721,10.7721,0,0,0-6.2878,2.04v31.325M515.24,64.4387a38.5431,38.5431,0,0,0-21.8589,6.8291l-7.29,4.9949-2.6249,1.7336A59.855,59.855,0,0,0,456.53,128.0684l-.0194,29.3566a38.4134,38.4134,0,0,0,11.2572,27.3887,39.3009,39.3009,0,0,0,27.6036,11.4771,38.5455,38.5455,0,0,0,21.8594-6.8294l7.4084-5.0764q.0721-.0493.1438-.1l20.64-14.4575a16.9762,16.9762,0,0,0,7.237-13.9046A22.1619,22.1619,0,0,0,539.7151,135.79l5.7079-4.0857a20.7919,20.7919,0,0,0,8.6709-16.8571l.0075-11.543a38.4151,38.4151,0,0,0-11.2575-27.3887A39.3019,39.3019,0,0,0,515.24,64.4387Z"/>
      <path class="a" d="M589.7072,81.415a21.8406,21.8406,0,0,1,21.8848,21.8782l-.0075,11.5435a3.77,3.77,0,0,1-1.5758,3.0634L591.092,131.4412l.0116.0537-19.95,13.771v11.3908a7.5524,7.5524,0,0,0,7.5707,7.5584,7.45,7.45,0,0,0,4.3148-1.3867l19.3633-11.3457a5.1021,5.1021,0,0,1,2.5935-.7141,5.1538,5.1538,0,0,1,5.1553,5.1547l-20.64,14.4576-7.4087,5.0764a21.5515,21.5515,0,0,1-12.2636,3.8572,21.84,21.84,0,0,1-21.8845-21.8782l.0195-29.3679A43.0309,43.0309,0,0,1,567.29,92.1619l2.7455-1.8133,7.4087-5.0766a21.5508,21.5508,0,0,1,12.2633-3.857m-18.5536,51.222L588.5154,120.44l-.1231-10.2365A10.923,10.923,0,0,0,577.4415,99.272a10.7729,10.7729,0,0,0-6.2879,2.04v31.325m18.5536-68.1983a38.5436,38.5436,0,0,0-21.8589,6.8291l-7.2911,4.9961-2.6231,1.7322a59.8549,59.8549,0,0,0-26.937,50.0723l-.0195,29.3566a38.4147,38.4147,0,0,0,11.2573,27.389,39.302,39.302,0,0,0,27.6035,11.4768,38.5453,38.5453,0,0,0,21.8594-6.8294l7.4084-5.0764q.0722-.0493.1438-.1l20.64-14.4575a16.9762,16.9762,0,0,0,7.237-13.9046A22.162,22.162,0,0,0,614.1822,135.79l5.7077-4.0857a20.7911,20.7911,0,0,0,8.6709-16.8571l.0075-11.543a38.4147,38.4147,0,0,0-11.2575-27.3887,39.3019,39.3019,0,0,0-27.6036-11.4768Z"/>
      <path class="a" d="M370.9447,16.9763a15.0711,15.0711,0,0,1,12.3766,6.44c4.89,6.9842,8.8349,9.5081,12.0192,9.5081A6.3124,6.3124,0,0,0,399.01,31.7l-4.5268,12.4641a12.9719,12.9719,0,0,1-22.8228,3.0127l-5.9547-8.5041A7.1105,7.1105,0,0,0,354.0567,46.83l55.5724,80.3667a30.1418,30.1418,0,0,1-7.6145,42.1267l-13.0975,9.0047a14.4286,14.4286,0,0,1-20.002-3.6194c-4.8189-7.7385-7.742-10.5171-10.6066-10.5171-1.6048,0-3.1915.8726-5.0823,2.2336l4.5269-12.4641a11.6091,11.6091,0,0,1,11.0556-8.0175,13.3052,13.3052,0,0,1,10.8489,5.9233l5.9286,8.4666a6.6631,6.6631,0,0,0,5.6166,2.66,9.3467,9.3467,0,0,0,5.36-1.7051,7.3866,7.3866,0,0,0,2.0255-10.0664l-51.894-75.1135a37.246,37.246,0,0,1,9.1365-51.8665l6.4682-4.5325a15.0191,15.0191,0,0,1,8.6455-2.7329m0-16.9763a31.8889,31.8889,0,0,0-18.3872,5.8062l-6.4686,4.5329a54.286,54.286,0,0,0-13.3329,75.46l30.23,43.7568a28.7092,28.7092,0,0,0-21.19,18.61L337.27,160.63a16.9763,16.9763,0,0,0,15.957,22.7715q.54,0,1.0806-.0345c.0646.1028.13.2083.1972.3155q.24.3857.5005.7578a31.4055,31.4055,0,0,0,43.53,7.8767l13.0971-9.0046a47.118,47.118,0,0,0,11.9346-65.8079L389.8479,68.7417A29.6328,29.6328,0,0,0,410.44,49.96l4.5268-12.4643a16.9763,16.9763,0,0,0-15.9575-22.7715q-.5016,0-1.0029.0295c-.2408-.32-.5007-.6765-.779-1.074A32.1,32.1,0,0,0,370.9447,0Z"/>
    </g>
    <g>
      <path class="b" d="M48.2582,181.0367l-23.18-16.231V45.5941c0-12.1575-3.6267-15.7842-8.1-15.7842h0l10.8573-7.6135A12.9742,12.9742,0,0,1,48.2581,32.8192L55.2653,27.9a21.4225,21.4225,0,0,1,24.59-.019h0a24.6657,24.6657,0,0,1,10.525,20.21v9.0464A30.6533,30.6533,0,0,1,70.9657,85.6559h0l4.8584,2.1335a32.9879,32.9879,0,0,1,19.724,30.2045l0,7.5565a43.5272,43.5272,0,0,1-18.8006,35.8212Z"/>
      <path class="c" d="M48.2581,41.8887V88.9318L67.2,75.6685V51.7493a12.0375,12.0375,0,0,0-18.9419-9.8606Z"/>
      <path class="c" d="M48.2581,116.508v51.9047l9.2813-6.3178a33.9085,33.9085,0,0,0,14.8278-28.0306V111.977a24.4265,24.4265,0,0,0-10.416-20.0091h0L48.2522,101.56Z"/>
      <path class="b" d="M131.3184,141.9677V155.265c0,12.1575,3.6267,15.7842,8.1,15.7842h0l-10.8573,7.6134A12.9742,12.9742,0,0,1,108.1382,168.04l0-26.512h.0654V45.5941c0-12.1575-3.6266-15.7842-8.1-15.7842h0L110.96,22.1964a12.9743,12.9743,0,0,1,20.4234,10.6228V141.9677"/>
      <path class="b" d="M646.2685,141.9677V155.265c0,12.1575,3.6267,15.7842,8.1,15.7842h0l-10.8573,7.6134A12.9743,12.9743,0,0,1,623.0883,168.04v-26.512h.0654V45.5941c0-12.1575-3.6267-15.7842-8.1-15.7842h0l10.8573-7.6135a12.9742,12.9742,0,0,1,20.4233,10.6228V141.9677"/>
      <path class="b" d="M490.8729,49.978,483.26,39.1208c0,4.4737-3.6267,8.1-15.7842,8.1h-5.4969v-.0654H454.227V32.8192a12.9743,12.9743,0,0,0-20.4234-10.6228L422.9463,29.81c4.4738,0,8.1005,3.6266,8.1005,15.7841v1.5618H417.6754a12.9743,12.9743,0,0,0-10.6228,20.4233l7.6135,10.8574v0c0-4.4737,3.6267-8.1,15.7842-8.1l.5965.0008v71.191h-.0654V168.04a12.9742,12.9742,0,0,0,20.4233,10.6228l10.8573-7.6135c-4.4737,0-8.1-3.6267-8.1-15.7841V141.9677h.0654V70.3672l26.0231.0342A12.9743,12.9743,0,0,0,490.8729,49.978Z"/>
      <path class="b" d="M223.7547,155.264V141.9667h.0654V83.1551L203.9947,97.7876a9.0171,9.0171,0,0,0-3.6621,7.3146l.2419,36.4246v14.6981l-16.524,11.2923a4.51,4.51,0,0,1-7.0437-3.73V96.3607a12.9742,12.9742,0,0,0-20.4233-10.6228l-10.8573,7.6135h0c4.4737,0,8.1,3.6267,8.1,15.7842l-.02,49.5026a21.8165,21.8165,0,0,0,34.1481,18.0211l12.6193-8.6468v.0263a12.9743,12.9743,0,0,0,20.4233,10.6229l10.8573-7.6135C227.3814,171.0482,223.7547,167.4215,223.7547,155.264Z"/>
      <path class="b" d="M272.5868,85.2721l-7.4087,5.0765-2.7455,1.8133a43.0307,43.0307,0,0,0-19.3163,35.9064v0l-.0195,29.3679a21.8165,21.8165,0,0,0,34.1481,18.0211l7.4087-5.0765,20.6405-14.4575V143.76L278.182,162.8283a7.545,7.545,0,0,1-11.8855-6.1715v-11.391l19.95-13.7708-.0116-.0539L305.1516,117.9a3.7706,3.7706,0,0,0,1.5759-3.0636l.0074-11.5434A21.8165,21.8165,0,0,0,272.5868,85.2721Zm-6.29,47.3649V101.3119h0a10.9127,10.9127,0,0,1,17.2387,8.8919l.1231,10.2366Z"/>
      <path class="b" d="M502.9769,85.2721l-7.4087,5.0765-2.7454,1.8133a43.0305,43.0305,0,0,0-19.3164,35.9064v0l-.0195,29.3679a21.8165,21.8165,0,0,0,34.1481,18.0211l7.4087-5.0765,20.6405-14.4575h0a5.1468,5.1468,0,0,0-7.7488-4.4407l-19.3633,11.3456a7.545,7.545,0,0,1-11.8854-6.1715v-11.391l19.95-13.7708-.0117-.0539L535.5417,117.9a3.7706,3.7706,0,0,0,1.5759-3.0636l.0074-11.5434A21.8165,21.8165,0,0,0,502.9769,85.2721Zm-6.29,47.3649V101.3119h0a10.9126,10.9126,0,0,1,17.2386,8.8919l.1231,10.2366Z"/>
      <path class="b" d="M577.4439,85.2721l-7.4087,5.0765L567.29,92.1619a43.0307,43.0307,0,0,0-19.3163,35.9064v0l-.0195,29.3679a21.8165,21.8165,0,0,0,34.1481,18.0211l7.4087-5.0765,20.64-14.4575h0a5.1469,5.1469,0,0,0-7.7489-4.4407l-19.3632,11.3456a7.545,7.545,0,0,1-11.8855-6.1715v-11.391l19.95-13.7708-.0116-.0539L610.0087,117.9a3.7706,3.7706,0,0,0,1.5759-3.0636l.0074-11.5434A21.8165,21.8165,0,0,0,577.4439,85.2721Zm-6.29,47.3649V101.3119h0a10.9127,10.9127,0,0,1,17.2387,8.8919l.1231,10.2366Z"/>
      <path class="b" d="M362.2992,19.7093l-6.4682,4.5323a37.2461,37.2461,0,0,0-9.1365,51.8665l51.8941,75.1136a7.3868,7.3868,0,0,1-2.0256,10.0664h0c-3.3511,2.4036-8.6114,2.4235-10.9768-.9547l-5.9285-8.4668c-6.0234-8.6022-18.32-7.7761-21.9046,2.0944l-4.5269,12.4641h0c5.2658-3.79,8.17-3.79,15.689,8.2834v0a14.4323,14.4323,0,0,0,20.0019,3.6194l13.0975-9.0047a30.1419,30.1419,0,0,0,7.6144-42.1269L354.0567,46.83a7.1105,7.1105,0,0,1,1.7462-9.903h0a7.11,7.11,0,0,1,9.903,1.7462l5.9546,8.504a12.9744,12.9744,0,0,0,22.8229-3.0127L399.01,31.7h0c-3.6647,2.566-8.7156,1.6754-15.6889-8.2834h0A15.0888,15.0888,0,0,0,362.2992,19.7093Z"/>
    </g>
  </g>
</svg>
