<svg xmlns="http://www.w3.org/2000/svg" viewBox="0 0 327.3361 77.5912">
  <defs>
    <style>
      .a {
        fill: #1c1f75;
      }

      .b {
        fill: #fff;
      }

      .c {
        fill: #2e3192;
      }

      .d {
        fill: #ce9500;
      }
    </style>
  </defs>
  <g>
    <g>
      <g>
        <path class="a" d="M123.7283,9.29a4.7818,4.7818,0,0,1,4.7932,4.7855L128.4974,59.16c0,4.4764,1.3354,5.8118,2.9826,5.8118l-3.9976,2.8033a4.7179,4.7179,0,0,1-2.7267.8741,4.7819,4.7819,0,0,1-4.7932-4.7855l.0241-45.0846c0-4.4764-1.3354-5.8117-2.9826-5.8117l3.9976-2.8033a4.718,4.718,0,0,1,2.7267-.8742m0-6.2506h0a10.9535,10.9535,0,0,0-6.3151,2.0069L113.4152,7.85a6.2508,6.2508,0,0,0,.3126,10.4411q.0076.2208.008.4884l-.024,45.0813a11.0189,11.0189,0,0,0,17.3594,9.0325l3.9976-2.8034a6.2507,6.2507,0,0,0-.3126-10.441q-.0076-.221-.008-.4885l.0239-45.0813A11.053,11.053,0,0,0,123.7285,3.04Z"/>
        <path class="a" d="M93.1215,9.29a4.7819,4.7819,0,0,1,4.7932,4.7855l2.58-1.8112a7.8879,7.8879,0,0,1,9.054-.007h0a9.0821,9.0821,0,0,1,3.8753,7.4413V23.03a11.2864,11.2864,0,0,1-7.1485,10.5l1.7888.7856a12.146,12.146,0,0,1,7.2625,11.1213v2.7823a16.027,16.027,0,0,1-6.9225,13.1894l-10.49,7.2407L89.38,62.6731V18.7793c0-4.4764-1.3353-5.8117-2.9825-5.8117l3.9977-2.8033A4.7171,4.7171,0,0,1,93.1215,9.29m0-6.2506a10.9531,10.9531,0,0,0-6.3155,2.007L82.8083,7.85a6.2508,6.2508,0,0,0,.3125,10.4411c.0052.1473.0081.31.0081.4884V62.6731a6.2506,6.2506,0,0,0,2.6655,5.12L94.33,73.77a6.2505,6.2505,0,0,0,7.1361.0238l10.49-7.2407a22.2773,22.2773,0,0,0,9.6222-18.3334V45.437a18.3954,18.3954,0,0,0-4.9252-12.5283,17.5048,17.5048,0,0,0,3.0225-9.8791V19.6987A15.3445,15.3445,0,0,0,113.1322,7.136a14.1568,14.1568,0,0,0-13.0857-1.6515,10.9951,10.9951,0,0,0-6.925-2.445Z"/>
        <path class="a" d="M313.3333,9.29a4.7818,4.7818,0,0,1,4.7932,4.7855L318.1024,59.16c0,4.4764,1.3353,5.8118,2.9826,5.8118l-3.9977,2.8033a4.7177,4.7177,0,0,1-2.7267.8741,4.7819,4.7819,0,0,1-4.7932-4.7855l.0242-45.0846c0-4.4764-1.3354-5.8117-2.9827-5.8117l3.9977-2.8033a4.7178,4.7178,0,0,1,2.7267-.8742m0-6.2506h0a10.9544,10.9544,0,0,0-6.3153,2.0069L303.02,7.85a6.2508,6.2508,0,0,0,.3127,10.4412q.0076.2208.008.4883l-.0241,45.0813A11.0187,11.0187,0,0,0,320.676,72.893l3.9977-2.8033a6.2506,6.2506,0,0,0-.3125-10.441c-.0051-.1473-.0081-.31-.0081-.4885l.0241-45.0813A11.0531,11.0531,0,0,0,313.3335,3.04Z"/>
        <path class="a" d="M242.5994,9.29a4.7823,4.7823,0,0,1,4.7932,4.7855v5.2787h2.8541v.0241h2.0239c4.4765,0,5.8118-1.3353,5.8118-2.9826l2.8032,3.9977a4.7771,4.7771,0,0,1-3.9112,7.52l-9.5818-.0126V54.2642h-.0241V59.16c0,4.4764,1.3354,5.8118,2.9826,5.8118l-3.9977,2.8033a4.7164,4.7164,0,0,1-2.7267.8741,4.7822,4.7822,0,0,1-4.7931-4.7855l0-9.7617h.0242V27.89l-.22,0c-4.4765,0-5.8118,1.3354-5.8118,2.9826h0l-2.8034-3.9977a4.7772,4.7772,0,0,1,3.9114-7.52h4.9234v-.575c0-4.4764-1.3354-5.8117-2.9827-5.8117l3.9977-2.8033a4.7156,4.7156,0,0,1,2.7267-.8742M242.6,3.0394h0a10.9528,10.9528,0,0,0-6.3161,2.007L232.2863,7.85a6.2509,6.2509,0,0,0-2.5857,6.0932,11.0364,11.0364,0,0,0-4.7954,16.52l2.8033,3.9977a6.2511,6.2511,0,0,0,4.8984,2.6584V53.5576q-.024.2706-.024.5446V63.864a11.0188,11.0188,0,0,0,17.3594,9.029L253.94,70.09a6.2506,6.2506,0,0,0-.3125-10.441q-.0077-.221-.008-.4885V54.8139q.0237-.2716.0239-.55V34.16l3.323.0044a11.0279,11.0279,0,0,0,9.0371-17.3595L263.2,12.8071a6.2509,6.2509,0,0,0-9.7221-.6389A11.06,11.06,0,0,0,242.6,3.0394Z"/>
        <path class="a" d="M162.5566,32.6093V54.2638h-.024V59.16c0,4.4764,1.3353,5.8117,2.9825,5.8117l-3.9976,2.8033a4.7167,4.7167,0,0,1-2.7267.8741,4.7821,4.7821,0,0,1-4.7932-4.7854v-.01l-4.6464,3.1837a7.9349,7.9349,0,0,1-4.5154,1.42,8.0418,8.0418,0,0,1-8.058-8.0555l.0072-18.227c0-4.4764-1.3353-5.8117-2.9826-5.8117L137.8,33.56a4.7159,4.7159,0,0,1,2.7267-.8741,4.7823,4.7823,0,0,1,4.7932,4.7854V62.298a1.6623,1.6623,0,0,0,1.6656,1.6632,1.6411,1.6411,0,0,0,.928-.29l6.0841-4.1578V54.1018l-.089-13.4115a3.32,3.32,0,0,1,1.3484-2.6933l7.3-5.3877m.0008-6.2507a6.2471,6.2471,0,0,0-3.7127,1.2216l-7.3,5.3876q-.3645.2693-.7.57a11.0633,11.0633,0,0,0-10.3182-7.102,10.9522,10.9522,0,0,0-6.316,2.007l-3.9977,2.8033a6.2509,6.2509,0,0,0,.3126,10.4412c.0052.1473.0081.31.0081.4883L130.5271,60.4a14.1437,14.1437,0,0,0,4.1449,10.0829,14.4715,14.4715,0,0,0,10.1638,4.2258,14.1494,14.1494,0,0,0,7.3069-2.0382,10.9845,10.9845,0,0,0,12.9636.2223l3.9976-2.8032a6.2508,6.2508,0,0,0-.3125-10.4411c-.0051-.1473-.0081-.31-.0081-.4884V54.8136q.0239-.2718.0241-.55V32.6093a6.2512,6.2512,0,0,0-6.25-6.2507Z"/>
        <path class="a" d="M185.028,31.9686a8.0418,8.0418,0,0,1,8.0579,8.0556l-.0028,4.25a1.3882,1.3882,0,0,1-.58,1.128l-6.9651,4.9857.0043.02-7.3456,5.07v4.1942a2.7807,2.7807,0,0,0,2.7875,2.7829,2.7432,2.7432,0,0,0,1.5888-.5106l9.9826-7.0208v4.4784l-7.6,5.3233-2.7279,1.8692a7.9357,7.9357,0,0,1-4.5154,1.42,8.0418,8.0418,0,0,1-8.058-8.0555l.0072-10.8133h0a15.8438,15.8438,0,0,1,7.1123-13.2208l1.0109-.6676,2.7279-1.8692a7.9347,7.9347,0,0,1,4.5154-1.42m-6.8315,18.86,6.3926-4.4908-.0453-3.7691a4.0219,4.0219,0,0,0-4.0322-4.0251,3.9665,3.9665,0,0,0-2.3151.751v11.534m6.8315-25.1107a14.1924,14.1924,0,0,0-8.0486,2.5146l-2.6841,1.8392-.9663.6381a22.0383,22.0383,0,0,0-9.9182,18.4366l-.0072,10.8091A14.1443,14.1443,0,0,0,167.5487,70.04a14.471,14.471,0,0,0,10.1636,4.2257,14.1927,14.1927,0,0,0,8.0486-2.5145l2.7277-1.8692.053-.0366,7.6-5.3233a6.2509,6.2509,0,0,0,2.6647-5.12V54.9242a6.2513,6.2513,0,0,0-2.2233-4.78,7.6581,7.6581,0,0,0,2.751-5.8658l.0028-4.25a14.1442,14.1442,0,0,0-4.1452-10.0846,14.471,14.471,0,0,0-10.1635-4.2258Z"/>
        <path class="a" d="M269.8578,31.9686a8.0416,8.0416,0,0,1,8.0578,8.0556l-.0026,4.25a1.3884,1.3884,0,0,1-.58,1.128l-6.9652,4.9857.0042.02-7.3456,5.07v4.1942a2.7808,2.7808,0,0,0,2.7875,2.7829,2.7428,2.7428,0,0,0,1.5888-.5106l7.13-4.1774a1.8788,1.8788,0,0,1,.955-.2629,1.8977,1.8977,0,0,1,1.8982,1.8979h0l-7.6,5.3233-2.7279,1.8692a7.9355,7.9355,0,0,1-4.5154,1.42,8.0417,8.0417,0,0,1-8.058-8.0555l.0072-10.8133h0a15.8441,15.8441,0,0,1,7.1123-13.2208l1.0109-.6676,2.7279-1.8692a7.9347,7.9347,0,0,1,4.5154-1.42m-6.8316,18.86,6.3927-4.4908-.0454-3.7691a4.0218,4.0218,0,0,0-4.0321-4.0251,3.9666,3.9666,0,0,0-2.3152.751v11.534m6.8316-25.1107a14.1928,14.1928,0,0,0-8.0486,2.5146l-2.6841,1.8392-.9663.6381a22.0385,22.0385,0,0,0-9.9182,18.4366l-.0072,10.8091A14.1447,14.1447,0,0,0,252.3783,70.04a14.4711,14.4711,0,0,0,10.1638,4.2258,14.1927,14.1927,0,0,0,8.0486-2.5145l2.7278-1.8692.053-.0366,7.6-5.3233a6.2506,6.2506,0,0,0,2.6647-5.12,8.16,8.16,0,0,0-4.7666-7.413l2.1015-1.5044a7.6551,7.6551,0,0,0,3.1928-6.2073l.0027-4.25a14.1443,14.1443,0,0,0-4.145-10.0843,14.4706,14.4706,0,0,0-10.1636-4.2259Z"/>
        <path class="a" d="M297.2765,31.9686a8.0418,8.0418,0,0,1,8.058,8.0556l-.0027,4.25a1.3885,1.3885,0,0,1-.58,1.128l-6.9651,4.9857.0042.02-7.3455,5.07v4.1942a2.7806,2.7806,0,0,0,2.7874,2.7829,2.7432,2.7432,0,0,0,1.5888-.5106l7.13-4.1774a1.8913,1.8913,0,0,1,2.8532,1.635h0l-7.6,5.3233-2.7279,1.8692a7.9355,7.9355,0,0,1-4.5154,1.42A8.0415,8.0415,0,0,1,281.903,59.96l.007-10.8133h0a15.8443,15.8443,0,0,1,7.1123-13.2208l1.0109-.6676,2.7279-1.8692a7.9349,7.9349,0,0,1,4.5154-1.42m-6.8314,18.86,6.3925-4.4908-.0452-3.7691a4.0219,4.0219,0,0,0-4.0321-4.0251,3.9664,3.9664,0,0,0-2.3152.751v11.534m6.8314-25.1107a14.1924,14.1924,0,0,0-8.0485,2.5145l-2.6842,1.8393-.9663.6381a22.0389,22.0389,0,0,0-9.9182,18.4366l-.0071,10.8092a14.1444,14.1444,0,0,0,4.145,10.0845,14.47,14.47,0,0,0,10.1636,4.2258,14.1927,14.1927,0,0,0,8.0486-2.5145l2.7278-1.8692.053-.0366,7.6-5.3233a6.2506,6.2506,0,0,0,2.6647-5.12,8.16,8.16,0,0,0-4.7666-7.413l2.1017-1.5044a7.6554,7.6554,0,0,0,3.1926-6.2056l.0028-4.2515A14.1442,14.1442,0,0,0,307.44,29.9438a14.4712,14.4712,0,0,0-10.1638-4.2259Z"/>
        <path class="a" d="M216.728,8.2422a5.5491,5.5491,0,0,1,4.557,2.3714c1.8007,2.5715,3.2531,3.5009,4.4256,3.5009a2.3236,2.3236,0,0,0,1.3512-.451l-1.6668,4.5893a4.7763,4.7763,0,0,1-8.4034,1.1093l-2.1925-3.1312a2.6181,2.6181,0,1,0-4.2892,3.0034l20.4617,29.591a11.0983,11.0983,0,0,1-2.8036,15.5112l-4.8225,3.3155a5.313,5.313,0,0,1-7.3648-1.3326c-1.7744-2.8494-2.8506-3.8724-3.9053-3.8724a3.3839,3.3839,0,0,0-1.8713.8224l1.6667-4.5893a4.2747,4.2747,0,0,1,4.0707-2.9522,4.8993,4.8993,0,0,1,3.9947,2.181l2.1828,3.1175a2.4532,2.4532,0,0,0,2.068.9793,3.441,3.441,0,0,0,1.9736-.6278,2.72,2.72,0,0,0,.7459-3.7064L207.7991,30.0146a13.7141,13.7141,0,0,1,3.364-19.0973l2.3816-1.6688a5.5305,5.5305,0,0,1,3.1833-1.0063m0-6.2506a11.7411,11.7411,0,0,0-6.77,2.1379l-2.3816,1.6688A19.9886,19.9886,0,0,0,202.6788,33.6L213.7979,49.694a10.5708,10.5708,0,0,0-7.8022,6.8523l-1.6668,4.5893a6.2508,6.2508,0,0,0,5.8753,8.3845q.1991,0,.398-.0127l.0725.1161q.0883.142.1844.2791a11.5635,11.5635,0,0,0,16.0276,2.9l4.8225-3.3155A17.3488,17.3488,0,0,0,236.0918,45.24L223.6882,27.3023a10.9108,10.9108,0,0,0,7.5819-6.9155l1.6669-4.59a6.2508,6.2508,0,0,0-5.8756-8.3845q-.1845,0-.3694.0109c-.0886-.1177-.1843-.2491-.2867-.3954a11.8191,11.8191,0,0,0-9.6773-5.0367Z"/>
      </g>
      <g>
        <path class="b" d="M97.9146,68.6494,89.38,62.6731V18.7793c0-4.4764-1.3353-5.8117-2.9825-5.8117h0l3.9976-2.8033a4.7771,4.7771,0,0,1,7.52,3.9113l2.58-1.8112a7.8878,7.8878,0,0,1,9.0539-.007h0a9.082,9.082,0,0,1,3.8752,7.4413V23.03a11.2865,11.2865,0,0,1-7.1484,10.5h0l1.7889.7856a12.1461,12.1461,0,0,1,7.2624,11.1213l0,2.7823a16.0269,16.0269,0,0,1-6.9224,13.1894Z"/>
        <path class="c" d="M97.9146,17.415V34.7363l6.9745-4.8836v-8.807a4.4322,4.4322,0,0,0-6.9745-3.6307Z"/>
        <path class="c" d="M97.9146,44.89V64.0012l3.4174-2.3262a12.4852,12.4852,0,0,0,5.46-10.3209V43.2215a8.9939,8.9939,0,0,0-3.8352-7.3673h0l-5.044,3.5318Z"/>
        <path class="b" d="M128.4975,54.2642V59.16c0,4.4764,1.3353,5.8118,2.9825,5.8118h0l-3.9976,2.8033a4.7772,4.7772,0,0,1-7.52-3.9114V54.1022h.0241V18.7793c0-4.4764-1.3354-5.8117-2.9826-5.8117h0l3.9976-2.8033a4.7771,4.7771,0,0,1,7.52,3.9113V54.2642"/>
        <path class="b" d="M318.1024,54.2642V59.16c0,4.4764,1.3354,5.8118,2.9826,5.8118h0l-3.9977,2.8033a4.7772,4.7772,0,0,1-7.52-3.9114V54.1022h.0241V18.7793c0-4.4764-1.3353-5.8117-2.9826-5.8117h0l3.9977-2.8033a4.7771,4.7771,0,0,1,7.52,3.9113V54.2642"/>
        <path class="b" d="M260.8857,20.3935l-2.8033-3.9977c0,1.6473-1.3354,2.9826-5.8118,2.9826h-2.0239v-.0241h-2.8541V14.0756a4.7771,4.7771,0,0,0-7.52-3.9113l-3.9977,2.8033c1.6473,0,2.9826,1.3353,2.9826,5.8117v.575h-4.9233a4.7771,4.7771,0,0,0-3.9113,7.52l2.8033,3.9977h0c0-1.6472,1.3353-2.9826,5.8117-2.9826l.22,0V54.1022h-.0241l0,9.7617a4.7772,4.7772,0,0,0,7.52,3.9114l3.9976-2.8034c-1.6472,0-2.9826-1.3353-2.9826-5.8117v-4.896h.0241V27.9008l9.5817.0126A4.7772,4.7772,0,0,0,260.8857,20.3935Z"/>
        <path class="b" d="M162.5326,59.16V54.2638h.024V32.6093l-7.3,5.3877a3.32,3.32,0,0,0-1.3484,2.6933l.0891,13.4115v5.4119l-6.0841,4.1578A1.66,1.66,0,0,1,145.32,62.298V37.4716A4.7771,4.7771,0,0,0,137.8,33.56l-3.9977,2.8033h0c1.6473,0,2.9826,1.3353,2.9826,5.8117l-.0072,18.2269a8.0329,8.0329,0,0,0,12.5734,6.6354l4.6464-3.1837v.01a4.7771,4.7771,0,0,0,7.52,3.9113l3.9976-2.8033C163.8679,64.9716,162.5326,63.6363,162.5326,59.16Z"/>
        <path class="b" d="M180.5126,33.3888l-2.7279,1.8692-1.0109.6676a15.8441,15.8441,0,0,0-7.1123,13.2208h0L169.6543,59.96a8.0329,8.0329,0,0,0,12.5734,6.6354l2.7279-1.8692,7.6-5.3233V54.9242l-9.9827,7.0208a2.778,2.778,0,0,1-4.3762-2.2723V55.4785l7.3456-5.07-.0043-.02,6.9651-4.9858a1.3883,1.3883,0,0,0,.58-1.128l.0027-4.25A8.0328,8.0328,0,0,0,180.5126,33.3888Zm-2.3161,17.44V39.2947h0a4.018,4.018,0,0,1,6.3473,3.274l.0453,3.7691Z"/>
        <path class="b" d="M265.3424,33.3888l-2.7279,1.8692-1.0109.6676a15.8441,15.8441,0,0,0-7.1123,13.2208h0L254.4841,59.96a8.0329,8.0329,0,0,0,12.5734,6.6354l2.7279-1.8692,7.6-5.3233h0a1.895,1.895,0,0,0-2.8531-1.635l-7.13,4.1774a2.778,2.778,0,0,1-4.3762-2.2723V55.4785l7.3456-5.07-.0043-.02,6.9651-4.9858a1.3883,1.3883,0,0,0,.58-1.128l.0027-4.25A8.0328,8.0328,0,0,0,265.3424,33.3888Zm-2.3161,17.44V39.2947h0a4.018,4.018,0,0,1,6.3473,3.274l.0453,3.7691Z"/>
        <path class="b" d="M292.7611,33.3888l-2.7279,1.8692-1.0108.6676A15.8438,15.8438,0,0,0,281.91,49.1464h0L281.9029,59.96a8.0328,8.0328,0,0,0,12.5733,6.6354l2.7279-1.8692,7.6-5.3233h0a1.895,1.895,0,0,0-2.8531-1.635l-7.13,4.1774a2.778,2.778,0,0,1-4.3762-2.2723V55.4785l7.3456-5.07-.0043-.02,6.9651-4.9858a1.3885,1.3885,0,0,0,.58-1.128l.0027-4.25A8.0329,8.0329,0,0,0,292.7611,33.3888Zm-2.316,17.44V39.2947h0a4.018,4.018,0,0,1,6.3472,3.274l.0454,3.7691Z"/>
        <path class="b" d="M213.5447,9.2485l-2.3816,1.6688a13.7141,13.7141,0,0,0-3.364,19.0973l19.1074,27.6569a2.72,2.72,0,0,1-.7458,3.7064h0c-1.2339.8851-3.1707.8924-4.0417-.3515l-2.1829-3.1175c-2.2178-3.1673-6.7453-2.8631-8.0652.7712l-1.6668,4.5893h0c1.9388-1.3957,3.0082-1.3957,5.7766,3.05v0a5.3141,5.3141,0,0,0,7.3648,1.3326l4.8225-3.3155a11.0983,11.0983,0,0,0,2.8036-15.5111L210.51,19.2343a2.6181,2.6181,0,0,1,.643-3.6463h0a2.6181,2.6181,0,0,1,3.6463.6429l2.1925,3.1312a4.7771,4.7771,0,0,0,8.4034-1.1093l1.6667-4.5892h0c-1.3493.9448-3.2091.6168-5.7766-3.05h0A5.5558,5.5558,0,0,0,213.5447,9.2485Z"/>
      </g>
    </g>
    <g>
      <g>
        <g>
          <path class="b" d="M43.4549,58.82V14.5754H2.0583V58.7032l9.7787.1927C22.3764,59.1037,32.9256,59.3092,43.4549,58.82Z"/>
          <path class="d" d="M11.837,58.8959l-9.7787-.1927v5.2709a5.8553,5.8553,0,0,0,5.8553,5.8553h7.3282c4.3853,0,7.5148,4.2837,7.5148,4.2837s3.13-4.2837,7.5148-4.2837H37.6a5.8553,5.8553,0,0,0,5.8553-5.8553V58.82C32.9256,59.3092,22.3764,59.1037,11.837,58.8959Z"/>
        </g>
        <g>
          <path class="d" d="M21.548,74.9963c-.0264-.0351-2.7657-3.67-6.3057-3.67H7.9132A7.3611,7.3611,0,0,1,.5607,63.9743V13.0783H44.9523v50.896A7.3612,7.3612,0,0,1,37.6,71.3264H30.2716c-3.543,0-6.28,3.6357-6.3076,3.6723l-1.21,1.6436ZM3.5558,63.9743a4.3629,4.3629,0,0,0,4.3574,4.3579h7.3291a11.0207,11.0207,0,0,1,7.5147,3.5225,11.02,11.02,0,0,1,7.5146-3.5225H37.6a4.363,4.363,0,0,0,4.3584-4.3579V16.0725H3.5558Z"/>
          <path class="b" d="M44.3905,13.64V63.9741A6.7983,6.7983,0,0,1,37.6,70.765H30.2712c-3.8451,0-6.7313,3.8623-6.76,3.9014l-.7566,1.0277-.7536-1.0292c-.0278-.0376-2.9139-3.9-6.7594-3.9H7.9135a6.7983,6.7983,0,0,1-6.7908-6.7909V13.64H44.3905M7.9135,68.8937h7.3284c3.5271,0,6.2569,2.4118,7.5148,3.77,1.2581-1.3584,3.9877-3.77,7.5145-3.77H37.6a4.9253,4.9253,0,0,0,4.92-4.92V15.511H2.9939V63.9741a4.9253,4.9253,0,0,0,4.92,4.92m37.6-56.3766H0v51.457a7.9224,7.9224,0,0,0,7.9135,7.9136h7.3284c3.2408,0,5.8329,3.413,5.8588,3.4475l.7483,1.0221.9034,1.2339.9067-1.2315.7565-1.0277c.0239-.0319,2.6115-3.4443,5.8556-3.4443H37.6a7.9224,7.9224,0,0,0,7.9135-7.9136V12.5171ZM4.1166,16.6338h37.28v47.34A3.8012,3.8012,0,0,1,37.6,67.771H30.2712a11.3,11.3,0,0,0-7.5145,3.3045,11.3,11.3,0,0,0-7.5148-3.3045H7.9135a3.8012,3.8012,0,0,1-3.7969-3.7969v-47.34Z"/>
        </g>
      </g>
      <g>
        <g>
          <path class="d" d="M33.5236,60.6736a7.5226,7.5226,0,0,1-7.336-5.9053,1.5773,1.5773,0,0,1-.7138.87,1.792,1.792,0,0,1-.9483.28,2.1279,2.1279,0,0,1-1.418-.6236c-.038-.0429-2.4267-2.7534-3.998-4.5092a7.5078,7.5078,0,1,1-7.6709-5.106c.042-.1562.0859-.311.1328-.4624a6.0562,6.0562,0,0,1,1.2412-2.2978,3.6636,3.6636,0,0,1,1.0528-.8057,3.46,3.46,0,0,1,1.3515-.3584c1.32-.0815,2.875-.1226,4.62-.1226.6973,0,1.3692.0069,1.9893.0166,1.3867-1.1582,2.58-2.1186,2.58-2.1186a.9367.9367,0,0,0,.2812-.2246,3.0765,3.0765,0,0,0-.789-.2964,41.3412,41.3412,0,0,0-6.4786-.5513,3.06,3.06,0,0,1-.5888-.0581l-2.2178,3.0147-.0469.0346c-.3906.2906-3.8554,2.8394-5.16,2.8394a.9089.9089,0,0,1-.3311-.0576.9428.9428,0,0,1-.6494-.69,1.54,1.54,0,0,1,.5215-1.2319l3.8945-3.0259,1.5664-4.73a3.001,3.001,0,0,1,.1494-.4463,3.12,3.12,0,0,1,1.584-1.6118l.0039-.0019a3.1941,3.1941,0,0,1,.65-.2119,11.7475,11.7475,0,0,1,3.3985-.52c4.5918,0,7.6328,2.9658,8.9306,4.2324l.2022.1963c1.6445,1.583,2.0039,3.9209.8017,5.2115a23.6143,23.6143,0,0,1-2.6728,1.85A26.5065,26.5065,0,0,1,30.32,46.3762a7.5077,7.5077,0,1,1,3.2041,14.2974Zm-3.6788-11.75c-.1015.0855-.2.1748-.2939.2691a5.67,5.67,0,1,0,1.9121-1.2495,29.2561,29.2561,0,0,1,2.6563,4.8486.9453.9453,0,1,1-1.7373.7456A27.235,27.235,0,0,0,29.8448,48.924Zm-18.77-1.2963a5.6005,5.6005,0,1,0,1.9043.0092,20.9934,20.9934,0,0,0-.1718,2.8135c0,.75.0312,1.4087.0615,1.8775.0156.2333.0312.4194.042.5463l-.3721.1827.3858-.0411a.9751.9751,0,0,1-.1963.74.9394.9394,0,0,1-.6348.3486l-.1035.0059a.9434.9434,0,0,1-.9385-.8409c-.0332-.3139-.1348-1.4047-.1348-2.8188A23.9136,23.9136,0,0,1,11.0743,47.6277ZM25.548,44.4841c-1.4209.916-2.8907,1.8628-3.7754,2.4727a.5674.5674,0,0,0-.2442.3984.5739.5739,0,0,0,.1338.4517c.99,1.1674,2.78,3.4887,3.6407,4.6044.2285.2969.3857.501.4365.564a2.62,2.62,0,0,1,.28.4448c-.002-.0844-.004-.1694-.004-.2544a7.4408,7.4408,0,0,1,2.7032-5.769c-.4141-.52-.8418-1.0186-1.2744-1.4854a22.5874,22.5874,0,0,0-1.6319-1.5971ZM13.3741,45.7873A7.4741,7.4741,0,0,1,17.2062,47.77a4.4954,4.4954,0,0,1,.3115-2.0976c.06-.1509.18-.4473,2.1152-2.15-1.624.0034-3.0693.0429-4.3007.1186a1.5792,1.5792,0,0,0-.6192.1616,2.1809,2.1809,0,0,0-.8564.87A5.2658,5.2658,0,0,0,13.3741,45.7873Z"/>
          <path class="b" d="M20.1943,32.15c4.68,0,7.6707,3.1707,8.8644,4.32,1.496,1.4407,1.8418,3.5357.7874,4.6679a35.6752,35.6752,0,0,1-3.0241,2.0635,25.8376,25.8376,0,0,1,3.386,3.6631,7.1141,7.1141,0,1,1-.9466.5969c-.5306-.6882-1.05-1.293-1.5326-1.8142A22.5328,22.5328,0,0,0,25.847,43.831c-1.6032,1.0329-3.3,2.1213-4.2939,2.8064a.965.965,0,0,0-.1871,1.42c1.254,1.479,3.8346,4.8648,4.0709,5.16a1.3508,1.3508,0,0,1-.1658,2.0909,1.4031,1.4031,0,0,1-.745.2221,1.7289,1.7289,0,0,1-1.1365-.502s-4.0942-4.6455-5.1177-5.7478a3.3465,3.3465,0,0,1-.3937-3.4644,18.1367,18.1367,0,0,1,2.7888-2.6783q-.4074-.003-.83-.0032H19.834c-1.4789,0-3.0737.03-4.5255.12a1.9543,1.9543,0,0,0-.7691.2017,2.55,2.55,0,0,0-1.0157,1.0182,6.3377,6.3377,0,0,0-.6445,1.6284,7.1231,7.1231,0,1,1-1.1337-.0511c.0586-.2442.1224-.4852.1964-.7191a5.7268,5.7268,0,0,1,1.1569-2.1518,3.2687,3.2687,0,0,1,.9405-.7206A3.0752,3.0752,0,0,1,15.24,42.142c1.4868-.0914,3.1018-.1216,4.5969-.1216.75,0,1.47.0076,2.1276.0191,1.43-1.1969,2.685-2.207,2.685-2.207s1.3128-.6965-.6557-1.1984a41.4537,41.4537,0,0,0-6.5694-.5634,2.727,2.727,0,0,1-.7528-.1075l-2.3365,3.175S10.62,43.9013,9.4066,43.9013a.52.52,0,0,1-.1894-.0308c-.9449-.3713,0-1.2823,0-1.2823l3.9555-3.0707,1.6038-4.8417a2.7218,2.7218,0,0,1,.1381-.4168l0,0h0a2.74,2.74,0,0,1,1.4017-1.4165l0-.0006.0031-.0011a2.7116,2.7116,0,0,1,.5541-.1789,11.4126,11.4126,0,0,1,3.32-.5118M33.2507,53.723a.5576.5576,0,0,1-.5123-.3373,27.5325,27.5325,0,0,0-2.8108-5.0219,6.0559,6.0559,0,0,0-.6506.5552A6.0733,6.0733,0,1,0,30.8788,47.78a28.714,28.714,0,0,1,2.8837,5.1658.5576.5576,0,0,1-.5118.7775M11.99,59.1712a6.0046,6.0046,0,0,0,.6619-11.9729c-.0037.0235-.0083.0465-.012.07a21.03,21.03,0,0,0-.2209,3.1823c0,.76.0315,1.4274.063,1.9024.0157.2376.0313.4271.0431.5564.0058.0647.0106.1142.0139.1473l.0038.0369.0012.0109a.5573.5573,0,0,1-1.1079.1221l0,0c-.0015-.0136-.1316-1.1942-.1316-2.7759a22.34,22.34,0,0,1,.2222-3.2673A6.0028,6.0028,0,0,0,11.99,59.1712m8.2047-27.7966a12.2384,12.2384,0,0,0-3.5127.5353,3.4992,3.4992,0,0,0-.65.2106l-.0023.0008-.0281.0122a3.5042,3.5042,0,0,0-1.7986,1.8186,3.4213,3.4213,0,0,0-.1707.506L12.511,39.05l-3.7693,2.926-.0327.0255-.03.0288a1.9241,1.9241,0,0,0-.6333,1.5866,1.3255,1.3255,0,0,0,.8878.9753,1.289,1.289,0,0,0,.473.0846,5.8219,5.8219,0,0,0,2.3391-.8951,8.0167,8.0167,0,0,0-.5423,1.3152c-.0232.0731-.0453.1468-.0668.2208a7.8926,7.8926,0,1,0,8.6852,6.8493c1.4186,1.5959,2.9612,3.3459,2.9862,3.3744a2.5018,2.5018,0,0,0,1.7181.7647,2.1734,2.1734,0,0,0,1.1514-.3371,2.3148,2.3148,0,0,0,.3656-.2764,7.896,7.896,0,1,0,4.3934-9.7935,27.2384,27.2384,0,0,0-2.3561-2.59,17.1067,17.1067,0,0,0,2.3331-1.642c1.3448-1.4441.9783-4.0256-.8169-5.7546l-.2013-.1956c-1.3326-1.2991-4.453-4.3415-9.201-4.3417ZM15.125,41.3729l1.8787-2.553a3.4356,3.4356,0,0,0,.4207.0261,41.0126,41.0126,0,0,1,6.3778.5393q.0672.0172.1255.0337c-.4015.3254-1.2694,1.0318-2.239,1.8406-.5815-.0088-1.2054-.0145-1.8518-.0145-1.754,0-3.3166.0415-4.6445.1231l-.0674.0047Zm-1.24,4.1288a4.2111,4.2111,0,0,1,.3031-.6284,1.8164,1.8164,0,0,1,.6985-.724,1.1821,1.1821,0,0,1,.47-.1211c.9576-.0589,2.0483-.096,3.2539-.1108-1.2756,1.1682-1.3786,1.4259-1.4527,1.6112a5.11,5.11,0,0,0-.34,1.3935,7.8447,7.8447,0,0,0-2.9333-1.42Zm11.7931,6.7621-.0681-.0884c-.8625-1.118-2.6569-3.4444-3.6531-4.6194a.188.188,0,0,1-.0445-.15.184.184,0,0,1,.08-.13c.883-.6084,2.3505-1.5543,3.7815-2.476.4639.4206.9283.8812,1.3857,1.3747.348.3755.69.769,1.0223,1.175a7.8042,7.8042,0,0,0-2.504,4.9143Zm6.3849-4.1182a5.1462,5.1462,0,0,1,1.46-.21,5.23,5.23,0,1,1-3.7475,1.5816,26.8428,26.8428,0,0,1,2.25,4.1749,1.3326,1.3326,0,1,0,2.4486-1.0524,29.6035,29.6035,0,0,0-2.4113-4.4937ZM11.9889,54.4982A1.3332,1.3332,0,0,0,13.3142,53.02l-.0174-.18c-.0114-.1249-.0264-.3081-.0417-.5376-.0279-.4217-.0613-1.0852-.0613-1.8512a21.8089,21.8089,0,0,1,.1169-2.3445,5.2528,5.2528,0,1,1-2.6784.0126c-.0677.725-.1025,1.5051-.1034,2.331a28.5364,28.5364,0,0,0,.1361,2.86,1.3306,1.3306,0,0,0,1.3239,1.1884Z"/>
        </g>
        <polygon class="d" points="9.937 45.311 9.937 45.311 9.937 45.311 9.937 45.311"/>
        <path class="d" d="M16.1351,31.1625c-.0789.0007-.1556.002-.23.0034a2.7323,2.7323,0,0,1-5.4645,0s-.7641-1.9629,1.8657-2.59a2.7234,2.7234,0,0,1,.8665-.1426c2.6346-.2652,3.289,1.2723,3.449,2.1509A.4949.4949,0,0,1,16.1351,31.1625Z"/>
        <path class="d" d="M35.1647,52.6082a1.8249,1.8249,0,0,1-3.2858,1.5858,2.9307,2.9307,0,0,0,1.93-.1979A2.9719,2.9719,0,0,0,35.1647,52.6082Z"/>
        <path class="d" d="M12.479,53.9961a2.9725,2.9725,0,0,0,1.3555-1.3879A1.7355,1.7355,0,0,1,12.963,55a1.7389,1.7389,0,0,1-2.4143-.8056A2.9305,2.9305,0,0,0,12.479,53.9961Z"/>
        <path class="d" d="M8.1716,42.2455a1.1552,1.1552,0,0,0-.65-.2144.9678.9678,0,0,0-.69.2889,1.0508,1.0508,0,0,0-.2982.7523,1.4849,1.4849,0,0,0,.1163.5577.9116.9116,0,0,0,.2369.3409,1.4714,1.4714,0,0,0,.6293.31,3.5152,3.5152,0,0,0,.8585.095,6.093,6.093,0,0,0,.9178-.0747c.12-.0187.218-.0374.284-.051.0331-.0068.0582-.0124.0743-.016l.0172-.004.0033-.0008h0a.5572.5572,0,0,1,.2662,1.0822,7.2,7.2,0,0,1-1.5628.1788,4.1386,4.1386,0,0,1-1.52-.2546,2.3672,2.3672,0,0,1-.7167-.4389,2.0307,2.0307,0,0,1-.5215-.7481,2.5954,2.5954,0,0,1-.1977-.9762,2.1675,2.1675,0,0,1,.6211-1.537,2.0834,2.0834,0,0,1,1.4815-.6187,2.2709,2.2709,0,0,1,1.274.4052.5573.5573,0,0,1-.6237.9237Z"/>
      </g>
      <g>
        <g>
          <g>
            <path class="b" d="M47.1489,44.4509c7.022-.182,14.093,1.4033,21.0371.4847V2.0583H26.7893V44.48C33.2691,46.4419,40.3245,44.6277,47.1489,44.4509Z"/>
            <path class="d" d="M47.1489,44.4509c-6.8244.1768-13.88,1.991-20.36.0287V51.457a5.8554,5.8554,0,0,0,5.8554,5.8554h7.3282c4.3852,0,7.5147,4.2837,7.5147,4.2837s3.13-4.2837,7.5148-4.2837h7.3282A5.8555,5.8555,0,0,0,68.186,51.457V44.9356C61.2419,45.8542,54.1709,44.2689,47.1489,44.4509Z"/>
          </g>
          <g>
            <path class="d" d="M46.2794,62.4792c-.1094-.145-2.7978-3.67-6.3066-3.67H32.6447a7.3611,7.3611,0,0,1-7.3526-7.3521V.5612H69.6827v50.896a7.36,7.36,0,0,1-7.3515,7.3521H55.0021c-3.543,0-6.28,3.6357-6.3076,3.6724l-1.209,1.644ZM28.2863,51.4572a4.3631,4.3631,0,0,0,4.3584,4.358h7.3281a11.018,11.018,0,0,1,7.5146,3.5224,11.0288,11.0288,0,0,1,7.5147-3.5224h7.3291a4.3629,4.3629,0,0,0,4.3574-4.358V3.5554H28.2863Z"/>
            <path class="b" d="M69.1216,1.1227V51.4571a6.7984,6.7984,0,0,1-6.7909,6.7908H55.0023c-3.8452,0-6.7313,3.8623-6.76,3.9014L47.486,63.177l-.7537-1.0291c-.0277-.0377-2.9138-3.9-6.7594-3.9H32.6445a6.7984,6.7984,0,0,1-6.7909-6.7908V1.1227h43.268M32.6445,56.3767h7.3284c3.5272,0,6.257,2.4117,7.5149,3.77,1.2579-1.3585,3.9877-3.77,7.5145-3.77h7.3284a4.9255,4.9255,0,0,0,4.92-4.92V2.994H27.7249V51.4571a4.9254,4.9254,0,0,0,4.92,4.92M70.2443,0H24.731V51.4571a7.9224,7.9224,0,0,0,7.9135,7.9135h7.3284c3.2416,0,5.8324,3.4124,5.8583,3.4469L46.58,63.84l.9034,1.2337.9065-1.2315.7565-1.0278c.0234-.0313,2.6124-3.4442,5.8557-3.4442h7.3284a7.9225,7.9225,0,0,0,7.9136-7.9135V0ZM28.8475,4.1167h37.28v47.34a3.8012,3.8012,0,0,1-3.797,3.7968H55.0023a11.2993,11.2993,0,0,0-7.5145,3.3045,11.3,11.3,0,0,0-7.5149-3.3045H32.6445a3.8012,3.8012,0,0,1-3.797-3.7968V4.1167Z"/>
          </g>
        </g>
        <g>
          <circle class="d" cx="50.6809" cy="12.4507" r="2.9691"/>
          <circle class="d" cx="48.3306" cy="18.5875" r="3.0154"/>
          <circle class="d" cx="46.5886" cy="30.5874" r="2.9691"/>
          <g>
            <path class="d" d="M61.4366,47.8078c-1.6308.0005-2.3525-2.708-3.9335-8.6421l-.5538-2.0678c-.9257-.3618-5.1455-2.023-8.1191-3.3892-.41,1.8281-1.6416,6.7559-3.1494,7.502C42.92,42.5783,34.132,46.468,34.0441,46.507a5.3263,5.3263,0,0,1-1.958.4869,1.4971,1.4971,0,0,1-1.5557-.9483c-.6611-1.7285,1.0918-2.7075,2.9473-3.7436l.4443-.2491c2.0068-1.1342,7.0371-3.9052,7.9883-4.4292a138.4656,138.4656,0,0,0,2.4043-15.8452c-.8672.4737-2.5137,1.3594-3.875,2.0191.6191,3.6465,1.3486,9.4609-.2168,9.7959l-.04.0088-.12.0083c-1.5654,0-2.6367-5.1661-2.6465-5.2183l-.2314-1.2729c-.49-2.6622-.9141-4.961-.38-6.1475.5772-1.2837,7.2715-5.7109,10.8565-5.7124H47.72l3.0118.9375,5.9306,4.5693c1.0879-.7524,5.0323-3.394,6.82-3.394a1.0212,1.0212,0,0,1,1.0059.5342,1.4968,1.4968,0,0,1-.2783,1.4521c-1.3867,2.2442-6.6895,6.1572-8.3428,6.1577a1.0436,1.0436,0,0,1-.2842-.0371,18.6751,18.6751,0,0,1-4.1308-2.7246l-.4688,5.4429c1.9424.8867,8.8008,4.0923,9.36,5.3779.8974,2.06,3.09,11.5464,2.039,13.6519a.9383.9383,0,0,1-.62.541A1.4016,1.4016,0,0,1,61.4366,47.8078Z"/>
            <path class="b" d="M47.6611,15.6473l2.8889.8992,6.1014,4.7006S61.5828,17.76,63.4827,17.76a.6667.6667,0,0,1,.659.32c.7281,1.4566-6.4369,7.049-8.2743,7.049a.6387.6387,0,0,1-.1765-.0221c-1.2578-.3621-4.5615-3.1165-4.5615-3.1165l-.5562,6.4465s8.8573,4.0123,9.4152,5.2934c1.0338,2.3742,3.4121,13.2489,1.6846,13.6611a1.0175,1.0175,0,0,1-.2367.0289c-1.5051,0-2.2916-3.683-4.1637-10.6125,0,0-5.3629-2.0786-8.718-3.6544,0,0-1.4585,6.9244-3.0454,7.71-2.7854,1.3792-11.6225,5.2892-11.6225,5.2892a4.9768,4.9768,0,0,1-1.8.4536,1.15,1.15,0,0,1-1.1938-.7c-.5863-1.5312,1.2463-2.4014,3.22-3.5164,2.2207-1.2548,8.1419-4.513,8.1419-4.513S44.5764,26.79,44.73,21.1083c0,0-2.745,1.5266-4.7217,2.4667,0,0,1.6176,9.3221.1341,9.64a.3743.3743,0,0,1-.0793.0084c-.9986,0-2.0908-3.9173-2.2644-4.899-.5257-2.973-1.2053-5.9366-.64-7.1929.5172-1.15,7.1015-5.4826,10.503-5.484m.1177-.7753h-.118c-3.6.0014-10.5135,4.3932-11.21,5.9413-.5833,1.2969-.1491,3.6519.3536,6.3788.0771.4189.1552.8429.23,1.2671.01.0554,1.0678,5.5393,3.0278,5.5393a1.1551,1.1551,0,0,0,.2417-.0256c.5365-.1149,2.148-.46.5655-9.9539,1.0366-.51,2.1776-1.114,3.0145-1.5654a144.8522,144.8522,0,0,1-2.3175,14.9171c-1.2546.6909-5.9308,3.2682-7.8358,4.3446l-.4448.2495c-1.8277,1.0209-3.8992,2.178-3.1176,4.2192a1.8773,1.8773,0,0,0,1.9178,1.1977,5.64,5.64,0,0,0,2.1338-.5291c.3416-.1507,8.8643-3.9234,11.6328-5.2943,1.5312-.7581,2.7159-5.0217,3.25-7.3,2.7746,1.2518,6.377,2.6792,7.5233,3.1289q.2646.9834.5016,1.8758c1.6345,6.1331,2.38,8.9323,4.3087,8.9323a1.8013,1.8013,0,0,0,.4166-.05A1.3156,1.3156,0,0,0,62.73,47.4c1.1931-2.39-1.2083-12.09-2.031-13.98-.5611-1.2886-5.8584-3.8844-9.3065-5.4626l.384-4.4517a15.6584,15.6584,0,0,0,3.7,2.3454,1.4115,1.4115,0,0,0,.391.0523c1.9585,0,7.2882-4.102,8.6728-6.3419a1.9533,1.9533,0,0,0,.295-1.8289,1.3989,1.3989,0,0,0-1.3525-.7487c-1.789,0-5.37,2.3187-6.8077,3.302l-5.6518-4.3544-.11-.0848-.1327-.0413-2.8888-.8992-.1128-.035Z"/>
          </g>
        </g>
      </g>
    </g>
  </g>
</svg>
